# This file uses centimeters as units for non-parametric coordinates.

mtllib Bottles.mtl
g default
v 0.403462 0.122626 0.280564
v 0.063985 0.122626 0.410795
v 0.194215 0.122626 0.750271
v 0.533692 0.122626 0.620040
v 0.355581 0.677805 0.388046
v 0.171467 0.677805 0.458676
v 0.242097 0.677805 0.642790
v 0.426210 0.677805 0.572159
v 0.325848 0.769323 0.454787
v 0.238208 0.769323 0.488407
v 0.271828 0.769323 0.576048
v 0.359468 0.769323 0.542427
v 0.303262 0.825834 0.430719
v 0.214140 0.825834 0.510994
v 0.242076 0.825834 0.452399
v 0.294414 0.825834 0.600116
v 0.383536 0.825834 0.519841
v 0.355601 0.825834 0.578435
v 0.235820 0.825834 0.572181
v 0.361857 0.825834 0.458655
v 0.359976 0.000000 0.378179
v 0.161600 0.000000 0.454280
v 0.436076 0.000000 0.576555
v 0.237701 0.000000 0.652657
v -0.042053 0.000000 -0.255438
v -0.285546 0.000000 -0.342430
v -0.519235 0.000000 -0.231767
v -0.606227 0.000000 0.011727
v -0.495564 0.000000 0.245416
v -0.252071 0.000000 0.332409
v -0.018382 0.000000 0.221746
v 0.068611 0.000000 -0.021748
v 0.022802 0.823875 -0.327062
v -0.290333 0.823875 -0.438936
v -0.590859 0.823875 -0.296621
v -0.702732 0.823875 0.016514
v -0.560418 0.823875 0.317041
v -0.247283 0.823875 0.428915
v 0.053243 0.823875 0.286600
v 0.165115 0.823875 -0.026536
v -0.000786 0.778195 -0.301013
v -0.288592 0.778195 -0.403835
v -0.564809 0.778195 -0.273035
v -0.667633 0.778195 0.014773
v -0.536831 0.778195 0.290991
v -0.249025 0.778195 0.393813
v 0.027193 0.778195 0.263012
v 0.130016 0.778195 -0.024794
v 0.018899 0.870516 -0.322752
v -0.290045 0.870516 -0.433126
v -0.586549 0.870516 -0.292718
v -0.696924 0.870516 0.016226
v -0.556515 0.870516 0.312731
v -0.247571 0.870516 0.423105
v 0.048932 0.870516 0.282697
v 0.159307 0.870516 -0.026247
v -0.096326 0.950624 -0.195497
v -0.281540 0.950624 -0.261669
v -0.459296 0.950624 -0.177492
v -0.525467 0.950624 0.007721
v -0.441291 0.950624 0.185476
v -0.256077 0.950624 0.251647
v -0.078321 0.950624 0.167471
v -0.012150 0.950624 -0.017742
v -0.253019 1.002926 -0.047791
v -0.311588 1.002926 -0.020800
v -0.284597 1.002926 0.037769
v -0.226028 1.002926 0.010778
v -0.268808 1.097769 -0.005011
v -0.244995 1.025057 -0.069533
v -0.231213 1.065802 -0.022335
v -0.286134 1.065802 -0.042606
v -0.333330 1.025056 -0.028824
v -0.306403 1.065802 0.012314
v -0.292622 1.025057 0.059510
v -0.251483 1.065802 0.032585
v -0.204287 1.025056 0.018802
v 0.459467 -0.000000 -0.201802
v 0.321050 -0.000000 -0.118859
v 0.315199 -0.000000 0.148080
v 0.449848 -0.000000 0.237012
v 0.588263 -0.000000 0.154064
v 0.594116 -0.000000 -0.112871
v 0.458618 0.408682 -0.163125
v 0.344603 0.408682 -0.094803
v 0.339786 0.408682 0.125078
v 0.450697 0.408682 0.198331
v 0.564710 0.408682 0.130007
v 0.569530 0.408682 -0.089871
v 0.456449 0.479599 -0.064230
v 0.384684 0.479599 -0.024867
v 0.382891 0.479599 0.056965
v 0.452864 0.479599 0.099435
v 0.524630 0.479599 0.060071
v 0.526422 0.479599 -0.021762
v 0.456808 0.543830 -0.080601
v 0.370687 0.543830 -0.033363
v 0.540778 0.543830 -0.029635
v 0.368535 0.543830 0.064840
v 0.452505 0.543830 0.115804
v 0.538627 0.543830 0.068567
v 0.051745 0.605308 -0.723459
v 0.024039 0.605308 -0.673757
v 0.039591 0.605308 -0.619022
v 0.089293 0.605308 -0.591313
v 0.144030 0.605308 -0.606866
v 0.171737 0.605308 -0.656569
v 0.156184 0.605308 -0.711305
v 0.106482 0.605308 -0.739013
v 0.046176 0.709164 -0.730496
v 0.015124 0.709164 -0.674795
v 0.032554 0.709164 -0.613451
v 0.088256 0.709164 -0.582399
v 0.149600 0.709164 -0.599829
v 0.180652 0.709164 -0.655532
v 0.163222 0.709164 -0.716875
v 0.107520 0.709164 -0.747928
v 0.097888 0.709164 -0.665162
v 0.008730 0.437222 -0.782381
v -0.047040 0.437222 -0.641092
v 0.129004 0.437222 -0.850379
v -0.005637 0.437222 -0.509274
v 0.067493 0.437222 -0.480408
v 0.187767 0.437222 -0.548407
v 0.243538 0.437222 -0.689697
v 0.202134 0.437222 -0.821513
v 0.001176 0.021590 -0.649156
v 0.038438 0.021590 -0.743557
v 0.118797 0.021590 -0.788988
v 0.028839 0.021590 -0.561086
v 0.077700 0.021590 -0.541799
v 0.158059 0.021589 -0.587231
v 0.195321 0.021589 -0.681631
v 0.167658 0.021590 -0.769703
v 0.030131 0.000000 -0.754413
v -0.012307 0.000000 -0.646901
v 0.019198 0.000000 -0.546598
v 0.074846 0.000000 -0.524633
v 0.166366 -0.000000 -0.576375
v 0.208804 -0.000000 -0.683887
v 0.177299 0.000000 -0.784190
v 0.121651 0.000000 -0.806155
v 0.050442 0.556139 -0.727166
v 0.020495 0.556139 -0.675458
v 0.035884 0.556139 -0.617719
v 0.087594 0.556139 -0.587771
v 0.145333 0.556139 -0.603159
v 0.175280 0.556139 -0.654869
v 0.159891 0.556139 -0.712609
v 0.108181 0.556139 -0.742555
v 0.098249 0.000000 -0.665393
v -0.003704 0.473362 -0.798629
v -0.067220 0.473362 -0.637715
v -0.020066 0.473362 -0.487591
v 0.063222 0.473362 -0.454714
v 0.200201 0.473362 -0.532157
v 0.263718 0.473362 -0.693073
v 0.216564 0.473362 -0.843197
v 0.133276 0.473362 -0.876073
v 0.050442 0.567545 -0.727166
v 0.020495 0.567545 -0.675458
v 0.035884 0.567545 -0.617719
v 0.087594 0.567545 -0.587771
v 0.145333 0.567545 -0.603159
v 0.175280 0.567545 -0.654869
v 0.159891 0.567545 -0.712609
v 0.108181 0.567545 -0.742555
v 0.042668 0.567545 -0.737325
v 0.007815 0.567545 -0.677144
v 0.025725 0.567545 -0.609945
v 0.085907 0.567545 -0.575090
v 0.153107 0.567545 -0.593001
v 0.187960 0.567545 -0.653183
v 0.170050 0.567545 -0.720382
v 0.109868 0.567545 -0.755235
v 0.036241 0.617014 -0.740618
v -0.001012 0.617014 -0.676290
v 0.018131 0.617014 -0.604464
v 0.082457 0.617014 -0.567212
v 0.154284 0.617014 -0.586355
v 0.191537 0.617014 -0.650680
v 0.172394 0.617014 -0.722507
v 0.108068 0.617014 -0.759759
v 0.049776 0.617014 -0.722927
v 0.021067 0.617014 -0.673354
v 0.035820 0.617014 -0.617999
v 0.085394 0.617014 -0.589289
v 0.140749 0.617014 -0.604042
v 0.169459 0.617014 -0.653618
v 0.154705 0.617014 -0.708972
v 0.105131 0.617014 -0.737682
v 0.290504 0.348108 -0.429134
v 0.253652 0.348108 -0.442301
v 0.218283 0.348108 -0.425552
v 0.205117 0.348108 -0.388699
v 0.221866 0.348108 -0.353333
v 0.258718 0.348108 -0.340166
v 0.294087 0.348108 -0.356916
v 0.307253 0.348108 -0.393765
v 0.294647 0.419531 -0.433713
v 0.253346 0.419531 -0.448466
v 0.213708 0.419531 -0.429698
v 0.198952 0.419531 -0.388393
v 0.217723 0.419531 -0.348754
v 0.259024 0.419531 -0.334002
v 0.298662 0.419531 -0.352769
v 0.313418 0.419531 -0.394071
v 0.300718 0.000000 -0.438788
v 0.253892 0.000000 -0.455517
v 0.208951 0.000000 -0.434236
v 0.192222 0.000000 -0.387410
v 0.213503 0.000000 -0.342472
v 0.260330 0.000000 -0.325744
v 0.305270 0.000000 -0.347024
v 0.321999 0.000000 -0.393847
v 0.300718 0.364845 -0.438788
v 0.253892 0.364845 -0.455517
v 0.208951 0.364845 -0.434236
v 0.192222 0.364845 -0.387410
v 0.213503 0.364845 -0.342472
v 0.260330 0.364845 -0.325744
v 0.305270 0.364845 -0.347024
v 0.322000 0.364845 -0.393847
v 0.257111 0.000000 -0.390628
v 0.300718 0.340038 -0.438788
v 0.253892 0.340038 -0.455517
v 0.208951 0.340038 -0.434236
v 0.192222 0.340038 -0.387410
v 0.213503 0.340038 -0.342472
v 0.260330 0.340038 -0.325744
v 0.305270 0.340038 -0.347024
v 0.322000 0.340038 -0.393847
v 0.291764 0.364845 -0.428899
v 0.254553 0.364845 -0.442193
v 0.218840 0.364845 -0.425282
v 0.205546 0.364845 -0.388071
v 0.222457 0.364845 -0.352362
v 0.259669 0.364845 -0.339068
v 0.295382 0.364845 -0.355979
v 0.308676 0.364845 -0.393186
v 0.300718 0.323765 -0.438788
v 0.253892 0.323765 -0.455517
v 0.208951 0.323765 -0.434236
v 0.192222 0.323765 -0.387410
v 0.213503 0.323765 -0.342472
v 0.260330 0.323765 -0.325744
v 0.305270 0.323765 -0.347024
v 0.321999 0.323765 -0.393847
v 0.293141 0.331903 -0.430419
v 0.310725 0.331903 -0.393288
v 0.296902 0.331903 -0.354599
v 0.259770 0.331903 -0.337018
v 0.221080 0.331903 -0.350838
v 0.203497 0.331903 -0.387969
v 0.217319 0.331903 -0.426657
v 0.254451 0.331903 -0.444243
v 0.293131 0.011730 -0.430411
v 0.254452 0.011730 -0.444228
v 0.217330 0.011730 -0.426650
v 0.203511 0.011730 -0.387970
v 0.221090 0.011730 -0.350850
v 0.259769 0.011730 -0.337033
v 0.296892 0.011730 -0.354610
v 0.310711 0.011730 -0.393287
v 0.293131 0.279171 -0.430411
v 0.254452 0.279171 -0.444228
v 0.217330 0.279171 -0.426650
v 0.203511 0.279171 -0.387970
v 0.221090 0.279171 -0.350850
v 0.259769 0.279171 -0.337033
v 0.296892 0.279171 -0.354610
v 0.310711 0.279171 -0.393287
vt 0.095750 0.407461
vt 0.106956 0.218890
vt 0.408225 0.217883
vt 0.429605 0.331058
vt 0.102754 0.022427
vt 0.428863 0.112816
vt 0.093290 0.404997
vt 0.105240 0.215593
vt 0.407906 0.215682
vt 0.428972 0.329460
vt 0.101734 0.018205
vt 0.429025 0.110204
vt 0.859106 0.220379
vt 0.900229 0.179255
vt 0.941352 0.220379
vt 0.900229 0.261502
vt 0.838359 0.111534
vt 0.856050 0.072265
vt 0.844453 0.160865
vt 0.923727 0.069765
vt 0.939266 0.099435
vt 0.939128 0.137639
vt 0.905118 0.167625
vt 0.467547 0.219815
vt 0.482663 0.276648
vt 0.480767 0.164964
vt 0.467497 0.217841
vt 0.482474 0.274992
vt 0.480979 0.162784
vt 0.798402 0.108711
vt 0.864395 0.023198
vt 0.968186 0.058780
vt 0.886280 0.062972
vt 0.975172 0.155968
vt 0.764621 0.178403
vt 0.813889 0.200535
vt 0.017487 0.343020
vt 0.031533 0.216174
vt 0.017619 0.085825
vt 0.014901 0.339968
vt 0.029477 0.212588
vt 0.015975 0.081586
vt 0.966776 0.438444
vt 0.784347 0.426591
vt 0.784272 0.392618
vt 0.978227 0.406295
vt 0.600775 0.440919
vt 0.588754 0.408622
vt 0.968583 0.437684
vt 0.785160 0.425767
vt 0.785084 0.391610
vt 0.980094 0.405359
vt 0.600589 0.440174
vt 0.588503 0.407700
vt 0.968582 0.437684
vt 0.785160 0.425767
vt 0.785085 0.391608
vt 0.980095 0.405360
vt 0.600589 0.440173
vt 0.588503 0.407700
vt 0.968127 0.438084
vt 0.785674 0.426592
vt 0.785532 0.392620
vt 0.979513 0.405911
vt 0.602130 0.441284
vt 0.590046 0.409010
vt 0.417970 0.778944
vt 0.499063 0.745896
vt 0.579754 0.779887
vt 0.383998 0.859654
vt 0.417046 0.940747
vt 0.497756 0.974719
vt 0.578848 0.941671
vt 0.612821 0.860961
vt 0.939202 0.900905
vt 0.785417 0.895091
vt 0.633173 0.900898
vt 0.940859 0.902660
vt 0.786237 0.896815
vt 0.633164 0.902654
vt 0.940858 0.902661
vt 0.786236 0.896816
vt 0.633163 0.902655
vt 0.941469 0.900597
vt 0.787672 0.895088
vt 0.635440 0.901197
vt 0.005800 0.758353
vt 0.173433 0.720874
vt 0.171323 0.744446
vt 0.010799 0.781842
vt 0.330700 0.790064
vt 0.321074 0.812452
vt 0.006896 0.757520
vt 0.174204 0.720069
vt 0.172103 0.743596
vt 0.011890 0.780964
vt 0.331184 0.789105
vt 0.321582 0.811452
vt 0.005064 0.757447
vt 0.173487 0.719820
vt 0.171367 0.743502
vt 0.010086 0.781047
vt 0.331493 0.789313
vt 0.321822 0.811806
vt 0.006174 0.758623
vt 0.173002 0.721250
vt 0.170908 0.744710
vt 0.011156 0.781998
vt 0.329539 0.790091
vt 0.319966 0.812376
vt 0.161588 0.837803
vt 0.063961 0.864755
vt 0.253147 0.885239
vt 0.162405 0.836777
vt 0.064969 0.863707
vt 0.253798 0.884114
vt 0.161584 0.837299
vt 0.063497 0.864351
vt 0.253573 0.884935
vt 0.161246 0.837626
vt 0.064089 0.864502
vt 0.252381 0.884836
vt 0.140637 0.952641
vt 0.170755 0.967615
vt 0.141515 0.951411
vt 0.171580 0.966351
vt 0.140532 0.952652
vt 0.170793 0.967697
vt 0.140425 0.951949
vt 0.170404 0.966844
vt 0.329296 0.873331
vt 0.335927 0.911797
vt 0.299291 0.895482
vt 0.370781 0.889203
vt 0.374454 0.838489
vt 0.268900 0.986069
vt 0.240786 0.950042
vt 0.286905 0.955183
vt 0.273968 0.918103
vt 0.310217 0.931210
vt 0.332196 0.957931
vt 0.316490 0.856412
vt 0.353467 0.825329
vt 0.230390 0.933056
vt 0.259389 0.903779
vt 0.285977 0.880062
vt 0.493666 0.043206
vt 0.567426 0.034607
vt 0.581393 0.219863
vt 0.522744 0.229889
vt 0.691964 0.034081
vt 0.676120 0.221620
vt 0.765631 0.043837
vt 0.734477 0.232336
vt 0.019826 0.438058
vt 0.093542 0.429025
vt 0.108599 0.614218
vt 0.050003 0.624589
vt 0.218088 0.427768
vt 0.203345 0.615418
vt 0.291820 0.437091
vt 0.261772 0.625792
vt 0.756936 0.329639
vt 0.758188 0.271153
vt 0.788504 0.252994
vt 0.786447 0.349109
vt 0.816765 0.330920
vt 0.818016 0.272434
vt 0.526899 0.528885
vt 0.526899 0.587297
vt 0.476112 0.499879
vt 0.476313 0.616503
vt 0.425727 0.587297
vt 0.425727 0.528885
vt 0.606808 0.261869
vt 0.566642 0.272161
vt 0.649220 0.261324
vt 0.688639 0.273297
vt 0.134264 0.656078
vt 0.094154 0.666608
vt 0.176676 0.655284
vt 0.216170 0.667027
vt 0.607895 0.291980
vt 0.566776 0.299443
vt 0.646266 0.292566
vt 0.688180 0.302679
vt 0.135528 0.686186
vt 0.094449 0.693891
vt 0.173906 0.686546
vt 0.215884 0.696414
vt 0.635134 0.925233
vt 0.667906 0.925401
vt 0.667910 0.981676
vt 0.635134 0.981676
vt 0.700577 0.925233
vt 0.700577 0.981676
vt 0.733203 0.925233
vt 0.733203 0.981676
vt 0.765801 0.925234
vt 0.765822 0.981677
vt 0.798419 0.925233
vt 0.798419 0.981676
vt 0.831026 0.925233
vt 0.831026 0.981676
vt 0.863635 0.925233
vt 0.863635 0.981676
vt 0.896232 0.925233
vt 0.896232 0.981676
vt 0.968422 0.977562
vt 0.948085 0.985751
vt 0.948237 0.956835
vt 0.927830 0.977359
vt 0.919240 0.957024
vt 0.927694 0.936294
vt 0.948374 0.927767
vt 0.969036 0.936570
vt 0.977215 0.957313
vt 0.491622 0.363179
vt 0.473136 0.352450
vt 0.467782 0.331811
vt 0.512280 0.357693
vt 0.523008 0.339207
vt 0.517522 0.318549
vt 0.499036 0.307821
vt 0.478378 0.313307
vt 0.367039 0.617842
vt 0.320461 0.617847
vt 0.399972 0.591190
vt 0.287522 0.591201
vt 0.287520 0.567092
vt 0.320453 0.540440
vt 0.367031 0.540435
vt 0.399969 0.567081
vt 0.346425 0.425487
vt 0.401823 0.425268
vt 0.441120 0.456808
vt 0.307378 0.457338
vt 0.307492 0.486011
vt 0.346790 0.517551
vt 0.402188 0.517332
vt 0.441234 0.485482
vt 0.278084 0.686666
vt 0.278084 0.633265
vt 0.553855 0.633266
vt 0.553855 0.686666
vt 0.278084 0.682840
vt 0.278084 0.637092
vt 0.553855 0.637091
vt 0.553855 0.682840
vt 0.278084 0.677187
vt 0.278084 0.642744
vt 0.553855 0.642744
vt 0.553854 0.677187
vt 0.278084 0.682878
vt 0.278084 0.637053
vt 0.553855 0.637053
vt 0.553855 0.682878
vt 0.278084 0.686721
vt 0.278084 0.633210
vt 0.553855 0.633210
vt 0.553855 0.686721
vt 0.278084 0.682954
vt 0.278084 0.636977
vt 0.553855 0.636977
vt 0.553855 0.682954
vt 0.278063 0.677562
vt 0.278145 0.642369
vt 0.553875 0.643379
vt 0.553834 0.677562
vt 0.278145 0.682142
vt 0.278063 0.636780
vt 0.553834 0.636780
vt 0.553875 0.683151
vt 0.454422 0.439110
vt 0.469876 0.439110
vt 0.469876 0.451907
vt 0.464385 0.451907
vt 0.479601 0.439110
vt 0.479601 0.451907
vt 0.487324 0.439110
vt 0.487324 0.451907
vt 0.497699 0.439110
vt 0.497699 0.451907
vt 0.508427 0.439110
vt 0.508427 0.451907
vt 0.518829 0.439110
vt 0.518829 0.451907
vt 0.526306 0.439110
vt 0.526306 0.451907
vt 0.542112 0.439110
vt 0.530522 0.451907
vt 0.484727 0.437294
vt 0.484575 0.402418
vt 0.513630 0.419730
vt 0.504787 0.461867
vt 0.522838 0.461789
vt 0.542685 0.437042
vt 0.542534 0.402167
vt 0.522473 0.377593
vt 0.504422 0.377671
vt 0.454422 0.389110
vt 0.469876 0.389110
vt 0.479601 0.389110
vt 0.487324 0.389110
vt 0.497699 0.389110
vt 0.508427 0.389110
vt 0.518829 0.389110
vt 0.526306 0.389110
vt 0.542112 0.389110
vt 0.469876 0.453142
vt 0.464385 0.453142
vt 0.479601 0.453142
vt 0.487324 0.453142
vt 0.497699 0.453142
vt 0.508427 0.453142
vt 0.518829 0.453142
vt 0.526306 0.453142
vt 0.530522 0.453142
vt 0.469876 0.454454
vt 0.464385 0.454454
vt 0.479601 0.454454
vt 0.487324 0.454454
vt 0.497699 0.454454
vt 0.508427 0.454454
vt 0.518829 0.454454
vt 0.526306 0.454454
vt 0.530522 0.454454
vt 0.469876 0.459805
vt 0.464385 0.459805
vt 0.479601 0.459805
vt 0.487324 0.459805
vt 0.497699 0.459805
vt 0.508427 0.459805
vt 0.518829 0.459805
vt 0.526306 0.459805
vt 0.530522 0.459805
vt 0.469876 0.461712
vt 0.464385 0.461712
vt 0.479601 0.461712
vt 0.487324 0.461712
vt 0.497699 0.461712
vt 0.508427 0.461712
vt 0.518829 0.461712
vt 0.526306 0.461712
vt 0.527707 0.461712
vt 0.637253 0.926037
vt 0.667522 0.925503
vt 0.667522 0.981406
vt 0.635961 0.981000
vt 0.700003 0.925503
vt 0.700003 0.981406
vt 0.732772 0.925503
vt 0.732772 0.981406
vt 0.765681 0.925503
vt 0.765681 0.981406
vt 0.798591 0.925503
vt 0.798591 0.981406
vt 0.831358 0.925503
vt 0.831358 0.981406
vt 0.863840 0.925503
vt 0.863840 0.981406
vt 0.894112 0.926037
vt 0.895405 0.981000
vt 0.928283 0.936815
vt 0.948227 0.928554
vt 0.967974 0.937013
vt 0.920022 0.956760
vt 0.928283 0.976702
vt 0.948227 0.984963
vt 0.968171 0.976702
vt 0.976432 0.956760
vt 0.496456 0.363817
vt 0.476569 0.355448
vt 0.516281 0.355516
vt 0.468425 0.335464
vt 0.476796 0.315576
vt 0.496778 0.307434
vt 0.516666 0.315803
vt 0.524809 0.335786
vt 0.493718 0.458882
vt 0.499545 0.458882
vt 0.499545 0.463648
vt 0.493718 0.463648
vt 0.505373 0.458882
vt 0.505373 0.463648
vt 0.511200 0.458882
vt 0.511200 0.463648
vt 0.517028 0.458882
vt 0.517028 0.463648
vt 0.522855 0.458882
vt 0.522855 0.463648
vt 0.528682 0.458882
vt 0.528682 0.463648
vt 0.534509 0.458882
vt 0.534509 0.463648
vt 0.540337 0.458882
vt 0.540337 0.463648
vt 0.542145 0.407606
vt 0.542146 0.429849
vt 0.515295 0.418728
vt 0.526417 0.391877
vt 0.504173 0.391877
vt 0.488446 0.407605
vt 0.488447 0.429849
vt 0.504175 0.445577
vt 0.526417 0.445578
vt 0.493718 0.455755
vt 0.499545 0.455755
vt 0.499545 0.457318
vt 0.493718 0.457318
vt 0.505373 0.455755
vt 0.505373 0.457318
vt 0.511200 0.455755
vt 0.511200 0.457318
vt 0.517028 0.455755
vt 0.517028 0.457318
vt 0.522855 0.455755
vt 0.522855 0.457318
vt 0.528682 0.455755
vt 0.528682 0.457318
vt 0.534509 0.455755
vt 0.534509 0.457318
vt 0.540337 0.455755
vt 0.540337 0.457318
vt 0.504148 0.445648
vt 0.488378 0.429880
vt 0.493905 0.427590
vt 0.506437 0.440120
vt 0.488376 0.407579
vt 0.493904 0.409868
vt 0.504144 0.391809
vt 0.506434 0.397336
vt 0.526443 0.391807
vt 0.524154 0.397335
vt 0.542213 0.407575
vt 0.536686 0.409865
vt 0.542216 0.429876
vt 0.536688 0.427587
vt 0.526449 0.445646
vt 0.524159 0.440118
vt 0.493718 0.393544
vt 0.499545 0.393544
vt 0.505373 0.393544
vt 0.511200 0.393544
vt 0.517028 0.393544
vt 0.522855 0.393544
vt 0.528682 0.393544
vt 0.534509 0.393544
vt 0.540337 0.393544
vt 0.019018 0.936981
vt 0.038953 0.928724
vt 0.058710 0.937161
vt 0.010760 0.956918
vt 0.019018 0.976852
vt 0.038953 0.985109
vt 0.058890 0.976852
vt 0.067147 0.956918
vt 0.523402 0.715652
vt 0.523487 0.730075
vt 0.363988 0.730075
vt 0.364100 0.715552
vt 0.523487 0.715343
vt 0.523487 0.730284
vt 0.363988 0.730284
vt 0.363988 0.715343
vt 0.523487 0.715343
vt 0.523487 0.730284
vt 0.363988 0.730284
vt 0.363988 0.715343
vt 0.523487 0.715344
vt 0.523487 0.730284
vt 0.363988 0.730284
vt 0.363988 0.715344
vt 0.523487 0.715343
vt 0.523487 0.730284
vt 0.363988 0.730284
vt 0.363988 0.715343
vt 0.523487 0.715343
vt 0.523487 0.730284
vt 0.363988 0.730284
vt 0.363988 0.715343
vt 0.523487 0.715343
vt 0.523487 0.730284
vt 0.363988 0.730284
vt 0.363988 0.715343
vt 0.523487 0.715552
vt 0.523402 0.729976
vt 0.364100 0.730075
vt 0.363988 0.715552
vt 0.038507 0.929283
vt 0.058366 0.937102
vt 0.019117 0.937970
vt 0.066878 0.956674
vt 0.059059 0.976531
vt 0.039488 0.985043
vt 0.019630 0.977225
vt 0.011116 0.957655
vn -0.354215 0.148209 -0.923345
vn -0.354215 0.148209 -0.923345
vn -0.354215 0.148209 -0.923345
vn -0.354215 0.148209 -0.923345
vn -0.923345 0.148209 0.354215
vn -0.923345 0.148209 0.354215
vn -0.923345 0.148209 0.354215
vn -0.923345 0.148209 0.354215
vn 0.354217 0.148208 0.923344
vn 0.354217 0.148208 0.923344
vn 0.354217 0.148208 0.923344
vn 0.354217 0.148208 0.923344
vn 0.923345 0.148209 -0.354214
vn 0.923345 0.148209 -0.354214
vn 0.923345 0.148209 -0.354214
vn 0.923345 0.148209 -0.354214
vn 0.000000 -1.000000 0.000000
vn 0.626501 -0.741440 -0.240338
vn 0.579908 -0.772637 0.258339
vn 0.240341 -0.741439 0.626501
vn 0.000000 1.000000 0.000001
vn 0.000000 1.000000 0.000000
vn 0.000000 1.000000 -0.000000
vn 0.000000 1.000000 -0.000000
vn 0.000000 1.000000 -0.000001
vn 0.000000 1.000000 -0.000002
vn 0.000000 1.000000 0.000003
vn -0.311901 0.491600 -0.813048
vn -0.311901 0.491600 -0.813048
vn -0.311901 0.491600 -0.813048
vn -0.311901 0.491600 -0.813048
vn -0.813049 0.491599 0.311901
vn -0.813049 0.491599 0.311901
vn -0.813049 0.491599 0.311901
vn -0.813049 0.491599 0.311901
vn 0.311906 0.491602 0.813045
vn 0.311906 0.491602 0.813045
vn 0.311906 0.491602 0.813045
vn 0.311906 0.491602 0.813045
vn 0.813046 0.491604 -0.311900
vn 0.813046 0.491604 -0.311900
vn 0.813046 0.491604 -0.311900
vn 0.813046 0.491604 -0.311900
vn -0.422330 -0.456776 -0.782939
vn -0.755609 -0.564052 -0.333017
vn -0.871237 -0.456398 0.180686
vn -0.333019 -0.564051 0.755609
vn -0.782939 -0.456779 0.422327
vn 0.755610 -0.564048 0.333022
vn 0.422334 -0.456772 0.782939
vn 0.180695 -0.456391 0.871238
vn 0.333020 -0.564052 -0.755607
vn 0.782939 -0.456778 -0.422327
vn 0.871238 -0.456397 -0.180685
vn 0.000000 1.000000 -0.000001
vn -0.180688 -0.456397 -0.871237
vn -0.304927 -0.524607 -0.794863
vn -0.304927 -0.524607 -0.794863
vn -0.304927 -0.524607 -0.794863
vn -0.304927 -0.524607 -0.794863
vn -0.794863 -0.524607 0.304926
vn -0.794863 -0.524607 0.304926
vn -0.794863 -0.524607 0.304926
vn -0.794863 -0.524607 0.304926
vn 0.304929 -0.524605 0.794864
vn 0.304929 -0.524605 0.794864
vn 0.794864 -0.524607 -0.304925
vn 0.794864 -0.524607 -0.304925
vn 0.665701 -0.127803 -0.735193
vn -0.049138 -0.127803 -0.990582
vn -0.047702 -0.270163 -0.961632
vn 0.646249 -0.270164 -0.713704
vn -0.735193 -0.127803 -0.665701
vn -0.713710 -0.270164 -0.646243
vn -0.990582 -0.127803 0.049138
vn -0.961632 -0.270165 0.047702
vn -0.665701 -0.127804 0.735193
vn -0.646247 -0.270168 0.713705
vn 0.049138 -0.127804 0.990582
vn 0.047702 -0.270170 0.961630
vn 0.735192 -0.127803 0.665701
vn 0.713708 -0.270168 0.646243
vn 0.990582 -0.127803 -0.049138
vn 0.961632 -0.270165 -0.047702
vn 0.000000 -1.000000 0.000000
vn 0.000000 -1.000000 0.000000
vn 0.000000 -1.000000 0.000000
vn 0.000000 -1.000000 0.000000
vn 0.000000 -1.000000 0.000000
vn 0.000000 -1.000000 0.000000
vn 0.000000 -1.000000 0.000000
vn 0.000000 -1.000000 0.000000
vn 0.669121 -0.078760 -0.738969
vn -0.049390 -0.078760 -0.995669
vn -0.738969 -0.078760 -0.669120
vn -0.995669 -0.078760 0.049391
vn -0.669120 -0.078759 0.738969
vn 0.049391 -0.078759 0.995670
vn 0.738969 -0.078759 0.669121
vn 0.995669 -0.078760 -0.049391
vn -0.032563 0.753671 -0.656445
vn 0.441150 0.753671 -0.487203
vn -0.487202 0.753671 -0.441152
vn -0.656446 0.753670 0.032563
vn -0.441150 0.753671 0.487203
vn 0.032563 0.753672 0.656444
vn 0.487201 0.753671 0.441152
vn 0.656446 0.753670 -0.032563
vn -0.023555 0.925487 -0.378045
vn 0.257823 0.925504 -0.277436
vn -0.277437 0.925503 -0.257822
vn -0.378046 0.925487 0.023555
vn -0.257822 0.925504 0.277436
vn 0.023555 0.925488 0.378045
vn 0.277437 0.925504 0.257822
vn 0.378046 0.925487 -0.023555
vn 0.065306 0.981722 -0.178767
vn -0.178766 0.981722 -0.065307
vn -0.065307 0.981722 0.178767
vn 0.178766 0.981722 0.065307
vn 0.308019 0.456742 -0.834573
vn 0.732549 0.591111 -0.337579
vn 0.834581 0.456724 0.308021
vn -0.337588 0.591109 -0.732547
vn -0.834580 0.456726 -0.308022
vn -0.732549 0.591110 0.337582
vn -0.308022 0.456730 0.834578
vn 0.337588 0.591104 0.732551
vn -0.000000 1.000000 -0.000000
vn 0.239128 -0.723212 -0.647906
vn -0.647898 -0.723217 -0.239135
vn -0.647907 -0.723217 -0.239110
vn 0.239129 -0.723212 -0.647905
vn -0.239126 -0.723219 0.647899
vn -0.239125 -0.723219 0.647899
vn 0.647899 -0.723220 0.239125
vn 0.647900 -0.723220 0.239120
vn -0.512373 0.079857 -0.855042
vn -0.512373 0.079857 -0.855042
vn -0.512373 0.079857 -0.855042
vn -0.512373 0.079857 -0.855042
vn -0.998030 0.058808 -0.021871
vn -0.998030 0.058808 -0.021871
vn -0.998030 0.058808 -0.021871
vn -0.998030 0.058808 -0.021871
vn -0.549354 0.079865 0.831765
vn -0.549354 0.079865 0.831764
vn -0.549354 0.079865 0.831765
vn -0.549354 0.079865 0.831765
vn 0.512391 0.079863 0.855031
vn 0.512391 0.079863 0.855031
vn 0.512391 0.079863 0.855031
vn 0.512391 0.079863 0.855031
vn 0.998029 0.058809 0.021880
vn 0.998029 0.058809 0.021880
vn 0.998029 0.058809 0.021880
vn 0.998029 0.058809 0.021880
vn 0.549354 0.079859 -0.831765
vn 0.549354 0.079859 -0.831765
vn 0.549354 0.079859 -0.831765
vn 0.549354 0.079859 -0.831765
vn 0.000000 -1.000000 0.000000
vn 0.000000 -1.000000 0.000000
vn 0.000000 -1.000000 0.000000
vn 0.000000 -1.000000 0.000000
vn 0.000000 -1.000000 0.000000
vn 0.000000 -1.000000 0.000000
vn 0.000000 1.000000 0.000000
vn 0.000000 1.000000 0.000000
vn 0.000000 1.000000 0.000000
vn 0.000000 1.000000 0.000000
vn 0.000000 1.000000 0.000000
vn 0.000000 1.000000 0.000000
vn -0.326811 0.758487 -0.563820
vn -0.326811 0.758487 -0.563819
vn -0.326811 0.758487 -0.563819
vn -0.326811 0.758487 -0.563819
vn -0.862330 0.505994 -0.018891
vn -0.862330 0.505994 -0.018891
vn -0.862330 0.505994 -0.018891
vn -0.862330 0.505994 -0.018891
vn -0.351202 0.758487 0.548957
vn -0.351202 0.758488 0.548957
vn -0.351202 0.758487 0.548957
vn -0.351202 0.758488 0.548957
vn 0.326819 0.758487 0.563814
vn 0.326819 0.758487 0.563814
vn 0.326819 0.758487 0.563814
vn 0.326819 0.758487 0.563814
vn 0.862325 0.506002 0.018898
vn 0.862325 0.506002 0.018898
vn 0.862325 0.506002 0.018898
vn 0.862325 0.506002 0.018898
vn 0.351202 0.758485 -0.548961
vn 0.351202 0.758485 -0.548961
vn 0.351202 0.758485 -0.548961
vn 0.351202 0.758485 -0.548961
vn -0.469596 -0.215583 -0.856157
vn -0.469596 -0.215583 -0.856157
vn -0.469596 -0.215583 -0.856157
vn -0.469596 -0.215583 -0.856157
vn -0.976252 -0.215579 -0.021389
vn -0.976252 -0.215579 -0.021389
vn -0.976252 -0.215579 -0.021389
vn -0.976252 -0.215579 -0.021389
vn -0.506649 -0.215579 0.834765
vn -0.506649 -0.215579 0.834765
vn -0.506649 -0.215579 0.834765
vn -0.506649 -0.215579 0.834765
vn 0.469600 -0.215579 0.856155
vn 0.469600 -0.215579 0.856155
vn 0.469600 -0.215580 0.856155
vn 0.469600 -0.215579 0.856155
vn 0.976252 -0.215579 0.021384
vn 0.976252 -0.215579 0.021384
vn 0.976252 -0.215579 0.021384
vn 0.976252 -0.215579 0.021384
vn 0.506652 -0.215579 -0.834763
vn 0.506652 -0.215579 -0.834763
vn 0.506652 -0.215579 -0.834763
vn 0.506652 -0.215579 -0.834763
vn -0.618326 -0.086096 -0.781192
vn -0.989608 -0.086098 -0.115168
vn -0.989608 -0.086098 -0.115169
vn -0.618326 -0.086096 -0.781192
vn -0.781198 -0.086099 0.618317
vn -0.781196 -0.086099 0.618321
vn -0.115171 -0.086096 0.989608
vn -0.115172 -0.086096 0.989608
vn 0.618328 -0.086094 0.781190
vn 0.618328 -0.086094 0.781190
vn 0.989608 -0.086096 0.115167
vn 0.989608 -0.086096 0.115169
vn 0.781196 -0.086097 -0.618321
vn 0.781195 -0.086097 -0.618322
vn 0.115168 -0.086098 -0.989608
vn 0.115167 -0.086098 -0.989608
vn 0.000000 1.000000 -0.000000
vn 0.000000 1.000000 0.000000
vn 0.000000 1.000000 -0.000000
vn 0.000000 1.000000 0.000000
vn 0.000000 1.000000 -0.000000
vn 0.000000 1.000000 -0.000000
vn 0.000000 1.000000 0.000000
vn 0.000000 1.000000 0.000000
vn 0.000000 1.000000 -0.000000
vn 0.000000 -1.000000 0.000000
vn 0.000000 -1.000000 0.000000
vn 0.000000 -1.000000 0.000000
vn 0.000000 -1.000000 0.000000
vn 0.000000 -1.000000 0.000000
vn 0.000000 -1.000000 0.000000
vn 0.000000 -1.000000 0.000000
vn 0.000000 -1.000000 0.000000
vn 0.000000 -1.000000 0.000000
vn 0.000000 -1.000000 0.000000
vn 0.000000 -1.000000 0.000000
vn 0.000000 -1.000000 0.000000
vn 0.000000 -1.000000 0.000001
vn 0.000000 -1.000000 0.000001
vn 0.000000 -1.000000 0.000001
vn 0.000000 -1.000000 -0.000002
vn 0.000000 -1.000000 -0.000002
vn 0.000000 -1.000000 -0.000002
vn 0.000000 1.000000 0.000001
vn 0.000000 1.000000 0.000001
vn 0.000000 1.000000 0.000001
vn 0.000000 1.000000 0.000000
vn 0.000000 1.000000 0.000000
vn 0.000000 1.000000 0.000000
vn 0.000000 1.000000 0.000000
vn 0.000000 1.000000 0.000000
vn 0.000000 1.000000 0.000000
vn 0.000000 1.000000 0.000000
vn 0.000000 1.000000 0.000000
vn 0.000000 1.000000 0.000000
vn 0.000000 1.000000 0.000000
vn 0.000000 1.000000 0.000000
vn 0.000000 1.000000 0.000000
vn 0.000000 1.000000 -0.000001
vn 0.000000 1.000000 -0.000001
vn 0.000000 1.000000 -0.000001
vn 0.000000 -1.000000 0.000000
vn 0.000000 -1.000000 0.000000
vn -0.000002 -1.000000 -0.000001
vn 0.000000 -1.000000 0.000000
vn -0.000003 -1.000000 -0.000001
vn -0.000006 -1.000000 -0.000001
vn -0.000004 -1.000000 -0.000002
vn 0.000002 -1.000000 -0.000006
vn -0.763368 -0.113957 -0.635833
vn -0.991850 -0.113956 -0.056988
vn -0.992338 -0.114204 -0.047143
vn -0.757000 -0.114205 -0.643357
vn -0.811190 -0.138122 0.568237
vn -0.801201 -0.139012 0.582025
vn 0.204367 -0.138122 0.969101
vn 0.187655 -0.139012 0.972348
vn 0.763368 -0.113957 0.635832
vn 0.757000 -0.114204 0.643357
vn 0.991850 -0.113956 0.056991
vn 0.992338 -0.114204 0.047145
vn 0.811188 -0.138121 -0.568241
vn 0.801199 -0.139011 -0.582027
vn -0.204366 -0.138122 -0.969101
vn -0.187654 -0.139012 -0.972349
vn -0.755274 0.018263 -0.655155
vn -0.999049 0.016002 -0.040567
vn -0.691100 0.715297 -0.103589
vn -0.491611 0.737415 -0.463183
vn -0.800155 0.038050 0.598586
vn -0.502875 0.810370 0.300695
vn 0.170501 0.041346 0.984490
vn 0.055330 0.833806 0.549277
vn 0.755405 0.018389 0.655000
vn 0.490211 0.738390 0.463113
vn 0.999037 0.016901 0.040495
vn 0.688437 0.717871 0.103517
vn 0.800176 0.039020 -0.598495
vn 0.500181 0.812516 -0.299393
vn -0.170344 0.041877 -0.984494
vn -0.055736 0.834482 -0.548210
vn 0.000000 -1.000000 0.000000
vn 0.000000 -1.000000 0.000000
vn -0.000002 -1.000000 -0.000001
vn 0.000000 -1.000000 0.000000
vn -0.000003 -1.000000 -0.000000
vn -0.000005 -1.000000 -0.000001
vn -0.000005 -1.000000 -0.000003
vn -0.000002 -1.000000 -0.000002
vn 0.000000 -1.000000 0.000000
vn -0.763368 -0.113957 -0.635832
vn -0.991850 -0.113956 -0.056989
vn -0.811189 -0.138121 0.568238
vn 0.204364 -0.138123 0.969101
vn 0.763369 -0.113957 0.635831
vn 0.991850 -0.113956 0.056991
vn 0.811187 -0.138121 -0.568241
vn -0.204367 -0.138122 -0.969101
vn -0.607698 0.000000 -0.794168
vn -0.991270 0.000000 -0.131850
vn -0.991270 0.000000 -0.131850
vn -0.607698 0.000000 -0.794168
vn -0.794165 0.000000 0.607702
vn -0.794165 0.000000 0.607702
vn -0.131864 0.000000 0.991268
vn -0.131864 0.000000 0.991268
vn 0.607699 0.000000 0.794168
vn 0.607699 0.000000 0.794168
vn 0.991270 0.000000 0.131848
vn 0.991270 0.000000 0.131848
vn 0.794165 0.000000 -0.607703
vn 0.794165 0.000000 -0.607703
vn 0.131847 0.000000 -0.991270
vn 0.131847 0.000000 -0.991270
vn 0.000000 -1.000000 0.000002
vn 0.000000 -1.000000 0.000002
vn 0.000000 -1.000000 0.000002
vn 0.000000 -1.000000 0.000002
vn 0.000000 -1.000000 0.000000
vn 0.000000 -1.000000 0.000000
vn 0.000000 -1.000000 0.000000
vn 0.000000 -1.000000 0.000000
vn 0.000000 -1.000000 -0.000001
vn 0.000000 -1.000000 -0.000001
vn 0.000000 -1.000000 -0.000001
vn 0.000000 -1.000000 -0.000001
vn 0.000000 -1.000000 0.000003
vn 0.000000 -1.000000 0.000003
vn 0.000000 -1.000000 0.000003
vn 0.000000 -1.000000 0.000003
vn 0.000000 -1.000000 0.000001
vn 0.000000 -1.000000 0.000001
vn 0.000000 -1.000000 0.000001
vn 0.000000 -1.000000 0.000001
vn 0.000000 -1.000000 0.000001
vn 0.000000 -1.000000 0.000001
vn 0.000000 -1.000000 0.000001
vn 0.000000 -1.000000 0.000001
vn 0.000000 -1.000000 0.000001
vn 0.000000 -1.000000 0.000001
vn 0.000000 -1.000000 0.000001
vn 0.000000 -1.000000 0.000001
vn 0.000000 -1.000000 0.000000
vn 0.000000 -1.000000 0.000000
vn 0.000000 -1.000000 0.000000
vn 0.000000 -1.000000 0.000000
vn -0.590938 -0.129754 -0.796214
vn -0.975300 -0.171636 -0.139038
vn -0.977702 -0.172394 -0.119916
vn -0.614662 -0.131607 -0.777734
vn -0.779588 -0.185922 0.598059
vn -0.781111 -0.185935 0.596066
vn -0.119163 -0.164275 0.979190
vn -0.141819 -0.165345 0.975986
vn 0.614915 -0.119362 0.779508
vn 0.590830 -0.121224 0.797637
vn 0.989497 -0.077721 0.121880
vn 0.986838 -0.078515 0.141373
vn 0.793326 -0.063597 -0.605467
vn 0.791755 -0.063610 -0.607517
vn 0.142662 -0.085002 -0.986115
vn 0.119576 -0.086113 -0.989083
vn 0.000000 1.000000 0.000001
vn 0.000000 1.000000 0.000001
vn 0.000000 1.000000 0.000001
vn 0.000000 1.000000 0.000001
vn 0.000000 1.000000 -0.000001
vn 0.000000 1.000000 -0.000001
vn 0.000000 1.000000 -0.000001
vn 0.000000 1.000000 -0.000001
vn 0.000000 1.000000 0.000002
vn 0.000000 1.000000 0.000002
vn 0.000000 1.000000 0.000002
vn 0.000000 1.000000 0.000002
vn 0.000000 1.000000 0.000001
vn 0.000000 1.000000 0.000001
vn 0.000000 1.000000 0.000001
vn 0.000000 1.000000 0.000001
vn 0.000000 1.000000 0.000000
vn 0.000000 1.000000 0.000000
vn 0.000000 1.000000 0.000000
vn 0.000000 1.000000 0.000000
vn 0.000000 1.000000 0.000000
vn 0.000000 1.000000 0.000000
vn 0.000000 1.000000 0.000000
vn 0.000000 1.000000 0.000000
vn 0.000000 1.000000 0.000002
vn 0.000000 1.000000 0.000002
vn 0.000000 1.000000 0.000002
vn 0.000000 1.000000 0.000002
vn 0.000000 1.000000 0.000001
vn 0.000000 1.000000 0.000001
vn 0.000000 1.000000 0.000001
vn 0.000000 1.000000 0.000001
vn 0.668726 -0.086115 -0.738505
vn -0.049360 -0.086120 -0.995061
vn -0.049360 -0.086120 -0.995061
vn 0.668714 -0.086115 -0.738516
vn -0.738529 -0.086117 -0.668699
vn -0.738519 -0.086117 -0.668710
vn -0.995062 -0.086111 0.049361
vn -0.995062 -0.086111 0.049360
vn -0.668698 -0.086116 0.738530
vn -0.668688 -0.086116 0.738539
vn 0.049360 -0.086120 0.995061
vn 0.049360 -0.086120 0.995061
vn 0.738507 -0.086115 0.668724
vn 0.738496 -0.086115 0.668736
vn 0.995062 -0.086108 -0.049360
vn 0.995062 -0.086108 -0.049361
vn 0.000000 -1.000000 0.000000
vn 0.000000 -1.000000 0.000000
vn 0.000000 -1.000000 0.000000
vn 0.000000 -1.000000 0.000000
vn 0.000000 -1.000000 0.000000
vn 0.000000 -1.000000 0.000000
vn 0.000000 -1.000000 0.000000
vn 0.000000 -1.000000 0.000000
vn 0.000000 1.000000 0.000000
vn 0.000000 1.000000 0.000000
vn 0.000000 1.000000 -0.000000
vn 0.000000 1.000000 0.000000
vn 0.000000 1.000000 0.000000
vn 0.000000 1.000000 0.000000
vn 0.000000 1.000000 -0.000000
vn 0.000000 1.000000 -0.000000
vn 0.648334 -0.258791 -0.716024
vn -0.047856 -0.258802 -0.964744
vn -0.046587 0.340321 -0.939155
vn 0.631142 0.340311 -0.697028
vn -0.716013 -0.258790 -0.648347
vn -0.697025 0.340312 -0.631145
vn -0.964750 -0.258780 0.047856
vn -0.939160 0.340307 0.046588
vn -0.648325 -0.258767 0.716041
vn -0.631120 0.340312 0.697048
vn 0.047857 -0.258757 0.964756
vn 0.046587 0.340321 0.939155
vn 0.716007 -0.258769 0.648361
vn 0.697007 0.340312 0.631165
vn 0.964749 -0.258782 -0.047858
vn 0.939160 0.340305 -0.046587
vn -0.049404 -0.075038 -0.995956
vn 0.669314 -0.075037 -0.739181
vn 0.000000 -1.000000 0.000000
vn -0.739179 -0.075037 -0.669316
vn -0.995956 -0.075037 0.049405
vn -0.669289 -0.075035 0.739204
vn 0.049405 -0.075034 0.995956
vn 0.739163 -0.075035 0.669333
vn 0.995956 -0.075037 -0.049405
vn 0.670997 0.024974 -0.741039
vn -0.049529 0.024976 -0.998460
vn -0.049544 -0.000019 -0.998772
vn 0.671225 -0.000027 -0.741253
vn -0.741037 0.024974 -0.670999
vn -0.741287 -0.000019 -0.671189
vn -0.998460 0.024973 0.049529
vn -0.998772 -0.000019 0.049544
vn -0.670972 0.024972 0.741062
vn -0.671162 -0.000019 0.741310
vn 0.049529 0.024971 0.998461
vn 0.049545 -0.000019 0.998772
vn 0.741022 0.024972 0.671016
vn 0.741235 -0.000028 0.671246
vn 0.998460 0.024973 -0.049529
vn 0.998772 -0.000037 -0.049544
vn 0.000000 1.000000 0.000001
vn 0.000000 1.000000 0.000001
vn 0.000000 1.000000 -0.000001
vn 0.000000 1.000000 -0.000001
vn 0.000000 1.000000 0.000000
vn 0.000000 1.000000 0.000000
vn 0.000000 1.000000 0.000001
vn 0.000000 1.000000 0.000001
vn 0.000000 1.000000 0.000000
vn 0.000000 1.000000 0.000000
vn 0.000000 1.000000 0.000002
vn 0.000000 1.000000 0.000002
vn 0.000000 1.000000 0.000001
vn 0.000000 1.000000 0.000001
vn 0.000000 1.000000 0.000000
vn 0.000000 1.000000 0.000000
vn 0.000000 -1.000000 0.000000
vn 0.000000 -1.000000 0.000000
vn 0.000000 -1.000000 0.000000
vn 0.000000 -1.000000 0.000000
vn 0.000000 -1.000000 0.000000
vn 0.000000 -1.000000 0.000000
vn 0.000000 -1.000000 0.000000
vn 0.000000 -1.000000 0.000000
vn 0.671197 0.000000 -0.741279
vn -0.049545 0.000000 -0.998772
vn -0.049545 0.000000 -0.998772
vn 0.671197 0.000000 -0.741279
vn -0.741269 0.000000 -0.671208
vn -0.741269 0.000000 -0.671208
vn -0.998772 0.000000 0.049545
vn -0.998772 0.000000 0.049545
vn -0.671175 0.000000 0.741298
vn -0.671175 0.000000 0.741298
vn 0.049544 0.000000 0.998772
vn 0.049544 0.000000 0.998772
vn 0.741240 0.000000 0.671240
vn 0.741240 0.000000 0.671240
vn 0.998772 0.000000 -0.049544
vn 0.998772 0.000000 -0.049544
vn 0.000000 1.000000 0.000002
vn 0.000000 1.000000 0.000002
vn 0.000000 1.000000 0.000002
vn 0.000000 1.000000 0.000000
vn 0.000000 1.000000 0.000000
vn 0.000000 1.000000 0.000000
vn 0.000000 1.000000 0.000000
vn 0.000000 1.000000 0.000000
vn 0.000000 1.000000 0.000000
vn 0.000000 1.000000 0.000000
vn 0.000000 1.000000 0.000000
vn 0.000000 1.000000 0.000000
vn 0.000000 1.000000 0.000000
vn 0.000000 1.000000 0.000000
vn 0.000000 1.000000 0.000000
vn 0.000000 1.000000 0.000000
vn 0.000000 1.000000 0.000000
vn 0.000000 1.000000 0.000000
s off
g PotionBottles
usemtl blinn5SG
f 1/1/1 2/2/2 6/3/3 5/4/4
f 2/2/5 3/5/6 7/6/7 6/3/8
f 3/7/9 4/8/10 8/9/11 7/10/12
f 4/8/13 1/11/14 5/12/15 8/9/16
s 1
f 22/13/17 21/14/18 23/15/19
f 24/16/20 22/13/17 23/15/19
s 2
f 14/17/21 19/18/22 15/19/23
f 15/19/23 18/20/24 17/21/25
f 15/19/23 20/22/26 13/23/27
s off
f 5/4/28 6/3/29 10/24/30 9/25/31
f 6/3/32 7/6/33 11/26/34 10/24/35
f 7/10/36 8/9/37 12/27/38 11/28/39
f 8/9/40 5/12/41 9/29/42 12/27/43
s 4
f 15/19/44 10/30/45 14/17/46
f 10/30/45 11/31/47 19/18/48 14/17/46
f 11/31/47 12/32/49 18/20/50 16/33/51
f 12/32/49 9/34/52 20/22/53 17/21/54
s 2
f 16/33/55 18/20/24 15/19/23
s 4
f 18/20/50 12/32/49 17/21/54
f 9/35/52 10/30/45 15/19/44 13/36/56
s 2
f 15/19/23 19/18/22 16/33/55
f 17/21/25 20/22/26 15/19/23
s 4
f 20/22/53 9/34/52 13/23/56
f 19/18/48 11/31/47 16/33/51
s off
f 2/2/57 1/1/58 21/37/59 22/38/60
f 3/5/61 2/2/62 22/38/63 24/39/64
s 1
f 4/8/65 3/7/66 24/40/20 23/41/19
f 1/11/67 4/8/68 23/41/19 21/42/18
s 7
f 41/43/69 42/44/70 34/45/71 33/46/72
f 42/44/70 43/47/73 35/48/74 34/45/71
f 43/49/73 44/50/75 36/51/76 35/52/74
f 44/50/75 45/53/77 37/54/78 36/51/76
f 45/55/77 46/56/79 38/57/80 37/58/78
f 46/56/79 47/59/81 39/60/82 38/57/80
f 47/61/81 48/62/83 40/63/84 39/64/82
f 48/62/83 41/65/69 33/66/72 40/63/84
s 8
f 27/67/85 26/68/86 25/69/87
f 28/70/88 27/67/85 25/69/87
f 29/71/89 28/70/88 25/69/87
f 30/72/90 29/71/89 25/69/87
f 31/73/91 30/72/90 25/69/87
f 32/74/92 31/73/91 25/69/87
s 7
f 25/75/93 26/76/94 42/44/70 41/43/69
f 26/76/94 27/77/95 43/47/73 42/44/70
f 27/78/95 28/79/96 44/50/75 43/49/73
f 28/79/96 29/80/97 45/53/77 44/50/75
f 29/81/97 30/82/98 46/56/79 45/55/77
f 30/82/98 31/83/99 47/59/81 46/56/79
f 31/84/99 32/85/100 48/62/83 47/61/81
f 32/85/100 25/86/93 41/65/69 48/62/83
f 33/87/72 34/88/71 50/89/101 49/90/102
f 34/88/71 35/91/74 51/92/103 50/89/101
f 35/93/74 36/94/76 52/95/104 51/96/103
f 36/94/76 37/97/78 53/98/105 52/95/104
f 37/99/78 38/100/80 54/101/106 53/102/105
f 38/100/80 39/103/82 55/104/107 54/101/106
f 39/105/82 40/106/84 56/107/108 55/108/107
f 40/106/84 33/109/72 49/110/102 56/107/108
f 50/89/101 58/111/109 57/112/110 49/90/102
f 51/92/103 59/113/111 58/111/109 50/89/101
f 52/95/104 60/114/112 59/115/111 51/96/103
f 53/98/105 61/116/113 60/114/112 52/95/104
f 54/101/106 62/117/114 61/118/113 53/102/105
f 55/104/107 63/119/115 62/117/114 54/101/106
f 56/107/108 64/120/116 63/121/115 55/108/107
f 49/110/102 57/122/110 64/120/116 56/107/108
f 57/112/110 58/111/109 65/123/117
f 58/111/109 59/113/111 66/124/118 65/123/117
f 59/115/111 60/114/112 66/125/118
f 60/114/112 61/116/113 67/126/119 66/125/118
f 61/118/113 62/117/114 67/127/119
f 62/117/114 63/119/115 68/128/120 67/127/119
f 63/121/115 64/120/116 68/129/120
f 64/120/116 57/122/110 65/130/117 68/129/120
s 9
f 70/131/121 71/132/122 77/133/123
f 71/132/122 70/131/121 72/134/124
f 72/134/124 70/131/121 73/135/125
f 72/136/124 73/137/125 74/138/126
f 74/138/126 73/137/125 75/139/127
f 74/138/126 75/139/127 76/140/128
f 76/140/128 75/139/127 77/133/123
f 76/140/128 77/133/123 71/132/122
f 71/132/122 72/134/124 69/141/129
f 72/136/124 74/138/126 69/141/129
f 74/138/126 76/140/128 69/141/129
f 76/140/128 71/132/122 69/141/129
s 10
f 65/142/130 66/143/131 73/135/132 70/131/133
f 66/144/131 67/145/134 75/139/135 73/137/132
f 67/145/134 68/146/136 77/133/137 75/139/135
f 68/146/136 65/142/130 70/131/133 77/133/137
s off
f 78/147/138 79/148/139 85/149/140 84/150/141
f 79/148/142 80/151/143 86/152/144 85/149/145
f 80/151/146 81/153/147 87/154/148 86/152/149
f 81/155/150 82/156/151 88/157/152 87/158/153
f 82/156/154 83/159/155 89/160/156 88/157/157
f 83/159/158 78/161/159 84/162/160 89/160/161
s 11
f 80/163/162 79/164/163 78/165/164
f 81/166/165 80/163/162 78/165/164
f 82/167/166 81/166/165 78/165/164
f 83/168/167 82/167/166 78/165/164
s 12
f 96/169/168 97/170/169 98/171/170
f 97/170/169 99/172/171 98/171/170
f 99/172/171 100/173/172 98/171/170
f 100/173/172 101/174/173 98/171/170
s off
f 84/150/174 85/149/175 91/175/176 90/176/177
f 85/149/178 86/152/179 92/177/180 91/175/181
f 86/152/182 87/154/183 93/178/184 92/177/185
f 87/158/186 88/157/187 94/179/188 93/180/189
f 88/157/190 89/160/191 95/181/192 94/179/193
f 89/160/194 84/162/195 90/182/196 95/181/197
f 90/176/198 91/175/199 97/183/200 96/184/201
f 91/175/202 92/177/203 99/185/204 97/183/205
f 92/177/206 93/178/207 100/186/208 99/185/209
f 93/180/210 94/179/211 101/187/212 100/188/213
f 94/179/214 95/181/215 98/189/216 101/187/217
f 95/181/218 90/182/219 96/190/220 98/189/221
s 13
f 102/191/222 103/192/223 111/193/224 110/194/225
f 103/192/223 104/195/226 112/196/227 111/193/224
f 104/195/226 105/197/228 113/198/229 112/196/227
f 105/197/228 106/199/230 114/200/231 113/198/229
f 106/199/230 107/201/232 115/202/233 114/200/231
f 107/201/232 108/203/234 116/204/235 115/202/233
f 108/203/234 109/205/236 117/206/237 116/204/235
f 109/205/236 102/207/222 110/208/225 117/206/237
s 14
f 110/209/238 111/210/239 118/211/240
f 111/210/239 112/212/241 118/211/240
f 112/212/241 113/213/242 118/211/240
f 113/213/242 114/214/243 118/211/240
f 114/214/243 115/215/244 118/211/240
f 115/215/244 116/216/245 118/211/240
f 116/216/245 117/217/246 118/211/240
f 117/217/246 110/209/238 118/211/240
s off
f 105/218/247 104/219/248 103/220/249
f 106/221/250 105/218/251 103/220/252
f 107/222/253 106/221/254 103/220/255
f 108/223/256 107/222/257 103/220/258
f 109/224/259 108/223/260 103/220/261
f 102/225/262 109/224/263 103/220/264
f 119/226/265 120/227/266 121/228/267
f 120/227/268 122/229/269 121/228/270
f 122/229/271 123/230/272 121/228/273
f 123/230/274 124/231/275 121/228/276
f 124/231/277 125/232/278 121/228/279
f 125/232/280 126/233/281 121/228/282
s 15
f 127/234/283 128/235/284 129/236/285
f 130/237/286 127/234/283 129/236/285
f 131/238/287 130/237/286 129/236/285
f 132/239/288 131/238/287 129/236/285
f 133/240/289 132/239/288 129/236/285
f 134/241/290 133/240/289 129/236/285
s 16
f 128/242/291 127/243/292 120/244/293 119/245/294
f 127/246/292 130/247/295 122/248/296 120/249/293
f 130/250/295 131/251/297 123/252/298 122/253/296
f 131/254/297 132/255/299 124/256/300 123/257/298
f 132/258/299 133/259/301 125/260/302 124/261/300
f 133/262/301 134/263/303 126/264/304 125/265/302
f 134/266/303 129/267/305 121/268/306 126/269/304
f 129/270/305 128/271/291 119/272/294 121/273/306
s 17
f 152/274/307 153/275/308 144/276/309 143/277/310
f 153/275/308 154/278/311 145/279/312 144/276/309
f 154/278/311 155/280/313 146/281/314 145/279/312
f 155/280/313 156/282/315 147/283/316 146/281/314
f 156/282/315 157/284/317 148/285/318 147/283/316
f 157/284/317 158/286/319 149/287/320 148/285/318
f 158/286/319 159/288/321 150/289/322 149/287/320
f 159/288/321 152/290/307 143/291/310 150/289/322
s 18
f 136/292/323 135/293/324 151/294/325
f 137/295/326 136/292/323 151/294/325
f 138/296/327 137/295/326 151/294/325
f 139/297/328 138/296/327 151/294/325
f 140/298/329 139/297/328 151/294/325
f 141/299/330 140/298/329 151/294/325
f 142/300/331 141/299/330 151/294/325
f 135/293/324 142/300/331 151/294/325
s 17
f 135/301/332 136/302/333 153/275/308 152/274/307
f 136/302/333 137/303/334 154/278/311 153/275/308
f 137/303/334 138/304/335 155/280/313 154/278/311
f 138/304/335 139/305/336 156/282/315 155/280/313
f 139/305/336 140/306/337 157/284/317 156/282/315
f 140/306/337 141/307/338 158/286/319 157/284/317
f 141/307/338 142/308/339 159/288/321 158/286/319
f 142/308/339 135/309/332 152/290/307 159/288/321
s 19
f 143/277/340 144/276/341 161/310/342 160/311/343
f 144/276/341 145/279/344 162/312/345 161/310/342
f 145/279/344 146/281/346 163/313/347 162/312/345
f 146/281/346 147/283/348 164/314/349 163/313/347
f 147/283/348 148/285/350 165/315/351 164/314/349
f 148/285/350 149/287/352 166/316/353 165/315/351
f 149/287/352 150/289/354 167/317/355 166/316/353
f 150/289/354 143/291/340 160/318/343 167/317/355
s off
f 160/311/356 161/310/357 169/319/358 168/320/359
f 161/310/360 162/312/361 170/321/362 169/319/363
f 162/312/364 163/313/365 171/322/366 170/321/367
f 163/313/368 164/314/369 172/323/370 171/322/371
f 164/314/372 165/315/373 173/324/374 172/323/375
f 165/315/376 166/316/377 174/325/378 173/324/379
f 166/316/380 167/317/381 175/326/382 174/325/383
f 167/317/384 160/318/385 168/327/386 175/326/387
s 20
f 168/320/388 169/319/389 177/328/390 176/329/391
f 169/319/389 170/321/392 178/330/393 177/328/390
f 170/321/392 171/322/394 179/331/395 178/330/393
f 171/322/394 172/323/396 180/332/397 179/331/395
f 172/323/396 173/324/398 181/333/399 180/332/397
f 173/324/398 174/325/400 182/334/401 181/333/399
f 174/325/400 175/326/402 183/335/403 182/334/401
f 175/326/402 168/327/388 176/336/391 183/335/403
s off
f 176/329/404 177/328/405 185/337/406 184/338/407
f 177/328/408 178/330/409 186/339/410 185/337/411
f 178/330/412 179/331/413 187/340/414 186/339/415
f 179/331/416 180/332/417 188/341/418 187/340/419
f 180/332/420 181/333/421 189/342/422 188/341/423
f 181/333/424 182/334/425 190/343/426 189/342/427
f 182/334/428 183/335/429 191/344/430 190/343/431
f 183/335/432 176/336/433 184/345/434 191/344/435
s 21
f 192/346/436 193/347/437 201/348/438 200/349/439
f 193/347/437 194/350/440 202/351/441 201/348/438
f 194/350/440 195/352/442 203/353/443 202/351/441
f 195/352/442 196/354/444 204/355/445 203/353/443
f 196/354/444 197/356/446 205/357/447 204/355/445
f 197/356/446 198/358/448 206/359/449 205/357/447
f 198/358/448 199/360/450 207/361/451 206/359/449
f 199/360/450 192/362/436 200/363/439 207/361/451
s 22
f 194/364/452 193/365/453 192/366/454
f 195/367/455 194/364/452 192/366/454
f 196/368/456 195/367/455 192/366/454
f 197/369/457 196/368/456 192/366/454
f 198/370/458 197/369/457 192/366/454
f 199/371/459 198/370/458 192/366/454
s 23
f 201/372/460 202/373/461 200/374/462
f 202/373/461 203/375/463 200/374/462
f 203/375/463 204/376/464 200/374/462
f 204/376/464 205/377/465 200/374/462
f 205/377/465 206/378/466 200/374/462
f 206/378/466 207/379/467 200/374/462
s 24
f 225/380/468 226/381/469 217/382/470 216/383/471
f 226/381/469 227/384/472 218/385/473 217/382/470
f 227/384/472 228/386/474 219/387/475 218/385/473
f 228/386/474 229/388/476 220/389/477 219/387/475
f 229/388/476 230/390/478 221/391/479 220/389/477
f 230/390/478 231/392/480 222/393/481 221/391/479
f 231/392/480 232/394/482 223/395/483 222/393/481
f 232/394/482 225/396/468 216/397/471 223/395/483
f 209/398/484 208/399/485 224/400/486
f 210/401/487 209/398/484 224/400/486
f 211/402/488 210/401/487 224/400/486
f 212/403/489 211/402/488 224/400/486
f 213/404/490 212/403/489 224/400/486
f 214/405/491 213/404/490 224/400/486
f 215/406/492 214/405/491 224/400/486
f 208/399/485 215/406/492 224/400/486
f 241/407/493 242/408/494 256/409/495 249/410/496
f 242/408/494 243/411/497 255/412/498 256/409/495
f 243/411/497 244/413/499 254/414/500 255/412/498
f 244/413/499 245/415/501 253/416/502 254/414/500
f 245/415/501 246/417/503 252/418/504 253/416/502
f 246/417/503 247/419/505 251/420/506 252/418/504
f 247/419/505 248/421/507 250/422/508 251/420/506
f 248/421/507 241/423/493 249/424/496 250/422/508
f 216/425/471 217/426/470 234/427/509 233/428/510
f 217/426/470 218/429/473 235/430/511 234/427/512
f 218/429/473 219/431/475 236/432/513 235/430/514
f 219/431/475 220/433/477 237/434/515 236/432/516
f 220/433/477 221/435/479 238/436/517 237/434/518
f 221/435/479 222/437/481 239/438/519 238/436/520
f 222/437/481 223/439/483 240/440/521 239/438/522
f 223/439/483 216/425/471 233/428/523 240/440/524
f 208/441/485 209/442/484 242/408/494 241/407/493
f 209/442/484 210/443/487 243/411/497 242/408/494
f 210/443/487 211/444/488 244/413/499 243/411/497
f 211/444/488 212/445/489 245/415/501 244/413/499
f 212/445/489 213/446/490 246/417/503 245/415/501
f 213/446/490 214/447/491 247/419/505 246/417/503
f 214/447/491 215/448/492 248/421/507 247/419/505
f 215/448/492 208/449/485 241/423/493 248/421/507
f 250/422/508 249/424/496 225/396/468 232/394/482
f 251/420/506 250/422/508 232/394/482 231/392/480
f 252/418/504 251/420/506 231/392/480 230/390/478
f 253/416/502 252/418/504 230/390/478 229/388/476
f 254/414/500 253/416/502 229/388/476 228/386/474
f 255/412/498 254/414/500 228/386/474 227/384/472
f 256/409/495 255/412/498 227/384/472 226/381/469
f 249/410/496 256/409/495 226/381/469 225/380/468
s 26
f 259/450/525 258/451/526 257/452/527
f 260/453/528 259/450/525 257/452/527
f 261/454/529 260/453/528 257/452/527
f 262/455/530 261/454/529 257/452/527
f 263/456/531 262/455/530 257/452/527
f 264/457/532 263/456/531 257/452/527
s 27
f 257/458/533 258/459/534 266/460/535 265/461/536
f 258/462/534 259/463/537 267/464/538 266/465/535
f 259/466/537 260/467/539 268/468/540 267/469/538
f 260/470/539 261/471/541 269/472/542 268/473/540
f 261/474/541 262/475/543 270/476/544 269/477/542
f 262/478/543 263/479/545 271/480/546 270/481/544
f 263/482/545 264/483/547 272/484/548 271/485/546
f 264/486/547 257/487/533 265/488/536 272/489/548
s off
f 266/490/549 267/491/550 265/492/551
f 267/491/552 268/493/553 265/492/554
f 268/493/555 269/494/556 265/492/557
f 269/494/558 270/495/559 265/492/560
f 270/495/561 271/496/562 265/492/563
f 271/496/564 272/497/565 265/492/566
